<svg width="92" height="91" viewBox="0 0 92 91" fill="none" xmlns="http://www.w3.org/2000/svg">
<mask id="mask0_54_543" style="mask-type:luminance" maskUnits="userSpaceOnUse" x="0" y="-1" width="92" height="92">
<path d="M9.35207 56.4663C6.43896 55.4227 3.51137 54.6689 0.610019 54.1717C1.48755 58.8687 3.10838 63.5084 5.54762 67.9195C12.6723 80.804 25.0985 88.8944 38.6049 91C38.1135 76.8856 26.6704 62.6723 9.35207 56.4663ZM11.0015 42.1523C33.8632 40.1591 51.4595 22.3531 53.5804 0.702913C43.6205 -1.05948 33.0159 0.440692 23.4741 5.71233C9.60907 13.3726 1.28191 27.1618 0 41.8339C3.5669 42.3502 7.2498 42.4792 11.0015 42.1523ZM45.675 56.3391C45.0902 69.049 49.1023 80.9035 56.2381 90.3045C60.1795 89.3642 64.0622 87.894 67.7816 85.8393C89.9173 73.6096 97.943 45.7583 85.7079 23.6321C83.0721 18.8655 79.7081 14.7579 75.8356 11.3618C58.7748 19.321 46.5995 36.2364 45.675 56.3391Z" fill="white"/>
</mask>
<g mask="url(#mask0_54_543)">
<path d="M9.35207 56.4663C6.43896 55.4227 3.51137 54.6689 0.610019 54.1717C1.48755 58.8687 3.10838 63.5084 5.54762 67.9195C12.6723 80.804 25.0985 88.8944 38.6049 91C38.1135 76.8856 26.6704 62.6723 9.35207 56.4663ZM11.0015 42.1523C33.8632 40.1591 51.4595 22.3531 53.5804 0.702913C43.6205 -1.05948 33.0159 0.440692 23.4741 5.71233C9.60907 13.3726 1.28191 27.1618 0 41.8339C3.5669 42.3502 7.2498 42.4792 11.0015 42.1523ZM45.675 56.3391C45.0902 69.049 49.1023 80.9035 56.2381 90.3045C60.1795 89.3642 64.0622 87.894 67.7816 85.8393C89.9173 73.6096 97.943 45.7583 85.7079 23.6321C83.0721 18.8655 79.7081 14.7579 75.8356 11.3618C58.7748 19.321 46.5995 36.2364 45.675 56.3391Z" fill="url(#paint0_linear_54_543)"/>
</g>
<defs>
<linearGradient id="paint0_linear_54_543" x1="0" y1="45.4993" x2="91.4316" y2="45.4993" gradientUnits="userSpaceOnUse">
<stop stop-color="#CD9F28"/>
<stop offset="1" stop-color="#ECD80B"/>
</linearGradient>
</defs>
</svg>
