<svg width="330" height="291" viewBox="0 0 330 291" fill="none" xmlns="http://www.w3.org/2000/svg">
<path d="M200.283 28.0394C197.155 45.5316 188.646 58.4383 188.798 77.193L188.907 137C188.913 148.856 189.586 161.139 188.257 172.93L188.588 211.82C179.79 219.147 92.5627 285.486 92.5185 285.584L92.3587 285.966C79.7303 289.874 70.9775 290.12 58 290C56.5 289 53 287 53 287L47.857 284.045C33.6918 275.8 20.2593 267.349 11.2576 253.196C1.18268 237.354 -1.55891 218.674 2.56593 200.491C5.22195 188.785 11.2304 177.84 19.3611 169.037C29.0405 158.557 41.4813 149.959 52.769 141.292L104.231 101.651C135.67 77.3154 166.703 49.1974 200.283 28.0394Z" fill="#1E9CC4"/>
<path d="M188.798 77.193L188.907 137C188.913 148.856 189.586 161.139 188.257 172.93C162.351 186.822 94.1466 253.998 70.7139 252.968C60.4684 252.517 50.2665 248.261 43.323 240.618C37.6109 234.33 33.0395 224.501 33.5337 215.922C33.995 207.915 36.5189 199.99 41.6032 193.722C52.191 180.67 69.2247 170.437 82.5218 160.193L149.73 108.016C162.792 97.8665 176.463 88.2075 188.798 77.193Z" fill="white"/>
<path d="M200.283 28.0394C222.412 9.1169 238.487 -1.69643 268.84 0.565749C284.432 1.72744 301.823 13.2797 311.751 24.9C319.207 33.6274 324.876 44.0463 327.139 55.3776C329.119 65.2944 328.592 76.2778 328.622 86.3782L328.694 132.72C328.707 161.474 330.504 191.515 328.238 220.05C326.58 240.937 317.654 257.24 301.765 270.719C284.801 285.109 271.084 290.758 248.773 288.835C233.906 287.555 213.69 271.33 204.255 260.049C193.14 246.761 188.836 228.799 188.588 211.82L188.257 172.93C189.586 161.139 188.913 148.856 188.907 136.999L188.797 77.193C188.646 58.4382 197.155 45.5316 200.283 28.0394Z" fill="#FA3F80"/>
<path d="M221.907 185.265C231.14 181.354 240.321 172.782 248.247 166.613L295.94 129.237L295.507 191.925C295.48 202.641 296.768 215.455 294.131 225.884C292.469 232.46 288.79 238.197 283.927 242.888C276.372 250.175 267.399 253.155 257.052 252.89C247.069 252.633 238.359 248.349 231.557 241.111C218.68 227.407 220.978 204.567 221.676 187.08L221.907 185.265Z" fill="white"/>
<path d="M221.749 144.955L221.602 71.3369C221.826 60.1405 225.909 50.384 233.964 42.6931C241.486 35.5104 250.822 32.9032 261.003 33.165C269.641 33.3871 278.637 37.9115 284.549 44.1404C295.938 56.1409 295.9 67.4778 295.434 83.2717C297.219 97.5378 297.899 115.022 295.94 129.237L248.247 166.613C240.321 172.782 231.14 181.354 221.907 185.264C219.935 171.956 220.894 158.314 221.749 144.955Z" fill="white"/>
<path d="M221.749 144.955C232.613 137.979 242.957 128.983 253.177 121.015C268.157 109.335 283.781 98.4666 295.434 83.2717C297.219 97.5378 297.899 115.022 295.94 129.237L248.247 166.613C240.321 172.782 231.14 181.354 221.907 185.265C219.935 171.956 220.894 158.314 221.749 144.955Z" fill="#1E9CC4"/>
</svg>
