<svg width="100" height="100" viewBox="0 0 100 100" fill="none" xmlns="http://www.w3.org/2000/svg">
<g clip-path="url(#clip0_57_545)">
<path d="M0 0H100V100H0V0Z" fill="#0058B8"/>
<path d="M76.8996 15C77.6819 15.144 77.9056 15.1724 78.476 15.7303C78.9574 17.5078 78.8786 19.3798 78.8822 21.2043L78.8906 28.4131V49.6841L78.8953 69.7902C78.8925 73.2353 79.441 78.0944 78.4641 81.383C77.9591 83.0828 76.8548 84.5695 75.284 85.4128C74.0093 86.0971 72.4347 86.0461 71.0859 85.639C67.888 84.6738 64.3298 81.7153 61.4531 79.8934C59.1901 78.4602 51.7027 74.5427 50.5772 72.4174C50.1204 71.5547 50.1469 70.8811 50.4341 69.9806C50.7344 69.0391 51.4193 68.127 51.9488 67.296C52.9934 65.6564 54.3738 62.9419 56.141 62.0591C58.5195 60.8708 61.2988 64.2156 63.4406 64.8603C64.0341 65.0389 64.2565 64.8265 64.749 64.5512C65.5259 62.7648 65.2149 60.2916 65.2168 58.3507L65.2064 47.031C65.2094 44.1267 65.5298 40.8162 65.163 37.9477C65.043 37.0095 64.7554 36.7877 64.0466 36.2548C62.7836 36.0844 61.6983 36.6896 60.5749 37.1832L54.7386 39.8718L45.7366 43.9992C43.0477 45.2133 40.0408 46.2482 37.9661 48.4116C39.5332 50.0807 43.3661 51.7435 44.043 53.7955C44.3241 54.6477 44.0486 55.5245 43.6564 56.2958C42.6495 58.2759 39.8788 63.105 37.787 63.7513C36.8942 64.0272 36.0806 63.7068 35.2875 63.2802C31.9038 61.46 28.6638 59.1741 25.4168 57.1148C22.7331 55.4127 19.5324 53.79 17.2504 51.5777C16.3003 50.6566 15.6195 49.5368 15.2455 48.2659C14.8313 46.8585 14.9266 45.4614 15.6428 44.1624C16.217 43.1209 17.1782 42.361 18.2038 41.7923C22.0669 39.6501 26.3517 37.9523 30.3812 36.1283L50.0515 27.1077L67.7392 18.9705C70.706 17.6147 73.766 15.8953 76.8996 15Z" fill="white"/>
</g>
<defs>
<clipPath id="clip0_57_545">
<rect width="100" height="100" fill="white"/>
</clipPath>
</defs>
</svg>
