<svg width="446" height="474" viewBox="0 0 446 474" fill="none" xmlns="http://www.w3.org/2000/svg">
<path d="M391.329 473.729L306.451 389.308L305.154 389.493V388.568L124.65 210.283L169.127 167.331L142.997 17.3726L19.0161 171.034C-2.11067 192.325 -6.00242 226.945 9.19403 252.493L86.6588 380.977C98.5194 400.787 120.017 412.635 143.182 412.45L181.544 412.079L391.329 473.729Z" fill="#18B6F6"/>
<path d="M437.653 168.071L420.602 136.598L411.707 120.492L408.186 114.197L407.816 114.568L361.114 33.6637C349.439 13.2989 327.571 0.709749 303.849 0.894898L262.893 2.0056L140.765 2.3759C117.6 2.56105 96.4736 14.7799 84.7979 34.5894L10.4836 181.956L143.36 17.0015L317.564 208.43L286.614 239.718L305.146 389.492L305.332 389.122V389.492H304.961L305.332 389.862L319.787 403.933L390.024 472.617C392.99 475.395 397.808 472.062 395.769 468.545L352.404 383.197L428.016 243.421L430.425 240.644C431.351 239.533 432.277 238.423 433.02 237.312C447.845 217.132 449.884 190.103 437.653 168.071Z" fill="#AC7EF4"/>
<path d="M318.118 207.691L143.358 17.1872L168.191 166.406L123.714 209.542L304.774 389.308L288.466 240.089L318.118 207.691Z" fill="white"/>
</svg>
