<svg width="16" height="16" viewBox="0 0 16 16" fill="none" xmlns="http://www.w3.org/2000/svg">
<path d="M16 8C16 3.58172 12.4183 0 8 0C3.58172 0 0 3.58172 0 8C0 12.4183 3.58172 16 8 16C12.4183 16 16 12.4183 16 8Z" fill="#00ACEE"/>
<path d="M11.3313 5.7866C11.7048 5.5633 11.9842 5.2117 12.1175 4.7975C11.7665 5.0057 11.3825 5.1524 10.9821 5.2312C10.4269 4.6439 9.54731 4.501 8.83481 4.8823C8.12221 5.2636 7.7531 6.0747 7.9338 6.8625C6.4961 6.7903 5.15671 6.1112 4.24881 4.9941C3.77491 5.8114 4.0171 6.8561 4.8021 7.3816C4.5182 7.3725 4.24061 7.2956 3.99251 7.1575C3.99251 7.165 3.99251 7.1725 3.99251 7.18C3.99271 8.0313 4.5927 8.7646 5.4271 8.9333C5.1638 9.0049 4.88761 9.0155 4.61961 8.9641C4.85431 9.6922 5.5252 10.1909 6.29 10.2058C5.6566 10.7029 4.8744 10.9725 4.0692 10.9712C3.9265 10.9714 3.78381 10.9632 3.64211 10.9466C4.45981 11.4721 5.4114 11.7509 6.3833 11.75C7.7355 11.7592 9.03501 11.2262 9.99111 10.27C10.9473 9.3138 11.4802 8.0142 11.4708 6.662C11.4708 6.5845 11.469 6.5075 11.4654 6.4308C11.8156 6.1777 12.1178 5.8642 12.3579 5.505C12.0317 5.6496 11.6856 5.7445 11.3313 5.7866Z" fill="white"/>
</svg>
