<svg width="1156" height="1156" viewBox="0 0 1156 1156" fill="none" xmlns="http://www.w3.org/2000/svg">
<rect width="1156" height="1156" rx="128" fill="#111827"/>
<path d="M577.845 577.732C577.845 502.475 638.856 441.155 714.422 441.155C789.679 441.155 851 502.166 851 577.732C851 652.989 789.989 714.31 714.422 714.31C639.165 714.31 577.845 652.989 577.845 577.732Z" fill="#1ABCFE"/>
<path d="M305 850.577C305 775.32 366.011 714 441.577 714H578.155V850.577C578.155 925.834 517.144 987.155 441.577 987.155C366.011 987.155 305 926.144 305 850.577Z" fill="#0ACF83"/>
<path d="M577.845 168.31V441.155H714.422C789.679 441.155 851 380.144 851 304.577C851 229.32 789.989 168 714.422 168H577.845V168.31Z" fill="#FF7262"/>
<path d="M305 304.887C305 380.144 366.011 441.465 441.577 441.465H578.155V168.31H441.577C366.011 168.31 305 229.32 305 304.887Z" fill="#F24E1E"/>
<path d="M305 577.732C305 652.989 366.011 714.31 441.577 714.31H578.155V441.155H441.577C366.011 441.155 305 502.475 305 577.732Z" fill="#A259FF"/>
</svg>
