<?xml version="1.0" encoding="utf-8" ?>
<svg xmlns="http://www.w3.org/2000/svg" xmlns:xlink="http://www.w3.org/1999/xlink" width="199" height="199">
	<path transform="scale(1.99848 1.99848)" d="M-0 -0L100 0L100 100L-0 100L0 -0Z"/>
	<path fill="white" transform="scale(1.99848 1.99848)" d="M10.553 39.5418L14.9867 39.5662L14.9134 60.4584L10.5503 60.4175L10.553 39.5418Z"/>
	<path fill="white" transform="scale(1.99848 1.99848)" d="M84.5557 39.5186L89.3854 39.6253L84.0172 49.9294L89.3865 60.4521L84.5533 60.3892L79.1053 50.15C79.2319 49.2278 80.1404 47.9251 80.5851 47.0846L84.5557 39.5186Z"/>
	<path fill="white" transform="scale(1.99848 1.99848)" d="M38.2117 39.5157L43.0125 39.4777L49.1256 51.3062L55.1316 39.5233L59.9833 39.5246L56.875 45.5544L49.1168 60.3876L38.2117 39.5157Z"/>
	<path fill="white" transform="scale(1.99848 1.99848)" d="M73.17 39.5492L77.5432 39.5663L77.513 60.4325L70.0055 60.3725C69.6371 59.4932 69.2912 58.4153 68.8122 57.5999C68.7742 57.5352 68.6126 57.2523 68.552 57.2225C68.361 57.1287 67.4672 57.2132 67.2175 57.2109C65.7084 57.1972 63.7055 57.4259 62.2864 57.0702C62.8901 55.9368 63.4569 54.7579 64.25 53.7422C65.0174 53.4549 65.334 53.5997 66.125 53.7574L66.4692 53.375L64.2026 48.7032L59.881 56.8166C59.2693 57.9861 58.7523 59.3959 57.908 60.4064L56.7813 60.4914C55.5904 60.3483 54.4442 60.3457 53.247 60.3801C54.467 58.0148 63.5325 40.0801 64.131 39.7755L73.1375 57.1066L73.17 39.5492Z"/>
	<path fill="white" transform="scale(1.99848 1.99848)" d="M22.0484 39.5092L26.8782 39.5302L21.4116 50.0212L25.1531 56.966L34.0506 39.5528L44.625 59.7599L44.6123 60.3581L40.1762 60.447L34.2048 48.7132L31.7888 53.375L32.125 53.7487L33.4931 53.6041C34.8439 54.2896 35.2894 55.8588 35.9279 57.188L29.5771 57.2351L28.1748 60.4542L22.0392 60.4835L16.4567 49.9933L22.0484 39.5092Z"/>
</svg>
