<?xml version="1.0" encoding="utf-8" ?>
<svg xmlns="http://www.w3.org/2000/svg" xmlns:xlink="http://www.w3.org/1999/xlink" width="200" height="200">
	<path fill="#00213A" d="M-0 -0L200 0L200 200L-0 200L0 -0Z"/>
	<path fill="white" d="M98.8848 22.8713L175.999 22.9407L175.997 104.957L111.029 104.981C111.284 107.552 111.079 110.338 111.076 112.928L111.066 128.656L111.038 177.152L101.187 177.12L43.1038 177.134L29.1469 177.131C27.6896 177.127 25.3548 177.421 24.0391 176.981L24.1917 90.2013L96.2946 90.1574L96.3986 40.7073L96.4037 28.162C96.4042 26.7072 96.0831 24.225 96.625 22.9507L98.8848 22.8713Z"/>
	<path fill="#00213A" d="M111.057 37.5817L161.137 37.6107C161.437 38.3948 161.235 39.9167 161.236 40.7744L161.237 49.7444L161.226 90.0622C156.701 90.4368 151.962 90.1709 147.412 90.1713L121.995 90.1959C120.563 90.1967 111.879 90.5092 111.175 90.043L111.057 37.5817Z"/>
	<path fill="#00213A" d="M38.9715 104.981L96.3313 104.977L96.2905 162.357L38.9013 162.315L38.9715 104.981Z"/>
</svg>
