<svg width="16" height="16" viewBox="0 0 16 16" fill="none" xmlns="http://www.w3.org/2000/svg">
<g clip-path="url(#clip0_37_353)">
<rect width="16" height="16" rx="8" fill="#E2E6EE"/>
<path d="M8.00004 11.75C7.47376 11.3011 6.98595 10.8089 6.54171 10.2787C5.87504 9.48246 5.08337 8.29663 5.08337 7.16663C5.08278 5.98644 5.79348 4.92221 6.88382 4.47054C7.97416 4.01888 9.22924 4.26881 10.0634 5.10371C10.6119 5.6498 10.9192 6.39262 10.9167 7.16663C10.9167 8.29663 10.125 9.48246 9.45837 10.2787C9.01413 10.8089 8.52632 11.3011 8.00004 11.75ZM8.00004 5.91663C7.55346 5.91663 7.1408 6.15488 6.91751 6.54163C6.69422 6.92838 6.69422 7.40488 6.91751 7.79163C7.1408 8.17838 7.55346 8.41663 8.00004 8.41663C8.6904 8.41663 9.25004 7.85698 9.25004 7.16663C9.25004 6.47627 8.6904 5.91663 8.00004 5.91663Z" fill="#79819A"/>
</g>
<defs>
<clipPath id="clip0_37_353">
<rect width="16" height="16" rx="8" fill="white"/>
</clipPath>
</defs>
</svg>
