<svg width="16" height="12" viewBox="0 0 16 12" fill="none" xmlns="http://www.w3.org/2000/svg">
<g clip-path="url(#clip0_53_512)">
<rect width="16" height="12" fill="#E1E7FE"/>
<g clip-path="url(#clip1_53_512)">
<mask id="mask0_53_512" style="mask-type:alpha" maskUnits="userSpaceOnUse" x="-2" y="-1" width="20" height="14">
<path d="M15.5555 -1H0.444404C-0.537436 -1 -1.33337 -0.164265 -1.33337 0.866667V11.1333C-1.33337 12.1643 -0.537436 13 0.444404 13H15.5555C16.5374 13 17.3333 12.1643 17.3333 11.1333V0.866667C17.3333 -0.164265 16.5374 -1 15.5555 -1Z" fill="white"/>
</mask>
<g mask="url(#mask0_53_512)">
<path d="M15.5555 -1H0.444404C-0.537436 -1 -1.33337 -0.164265 -1.33337 0.866667V11.1333C-1.33337 12.1643 -0.537436 13 0.444404 13H15.5555C16.5374 13 17.3333 12.1643 17.3333 11.1333V0.866667C17.3333 -0.164265 16.5374 -1 15.5555 -1Z" fill="#22438B"/>
<path fill-rule="evenodd" clip-rule="evenodd" d="M1.33324 -0.0666504L-0.467651 -0.0423837L-0.44454 1.80002L14.6506 12.0928L16.4612 12.0583L16.4275 10.2271L1.33324 -0.0666504Z" fill="white"/>
<path fill-rule="evenodd" clip-rule="evenodd" d="M0.444431 -0.0666504L-0.444458 0.866683L15.5555 12.0667L16.4444 11.1334L0.444431 -0.0666504Z" fill="#C7152A"/>
<path fill-rule="evenodd" clip-rule="evenodd" d="M14.6667 -0.0666504H16.4444V1.80002C16.4444 1.80002 5.99999 8.70295 1.34932 12.0928C1.29332 12.1339 -0.426675 12.0956 -0.426675 12.0956L-0.564453 10.3214L14.6667 -0.0666504Z" fill="white"/>
<path fill-rule="evenodd" clip-rule="evenodd" d="M15.5938 -0.0927734L16.4444 0.866693L0.444431 12.0667L-0.444458 11.1334L15.5938 -0.0927734Z" fill="#C7152A"/>
<path fill-rule="evenodd" clip-rule="evenodd" d="M5.77776 -0.0666504H10.2222V3.66668H16.4444V8.33335H10.2222V12.0667H5.77776V8.33335H-0.444458V3.66668H5.77776V-0.0666504Z" fill="white"/>
<path fill-rule="evenodd" clip-rule="evenodd" d="M6.66665 -0.0666504H9.33332V4.60002H16.4444V7.40002H9.33332V12.0667H6.66665V7.40002H-0.444458V4.60002H6.66665V-0.0666504Z" fill="#C7152A"/>
<path d="M15.5555 -0.533325H0.444417C-0.291962 -0.533325 -0.888916 0.0934762 -0.888916 0.866675V11.1333C-0.888916 11.9065 -0.291962 12.5333 0.444417 12.5333H15.5555C16.2919 12.5333 16.8889 11.9065 16.8889 11.1333V0.866675C16.8889 0.0934762 16.2919 -0.533325 15.5555 -0.533325Z" stroke="black" stroke-opacity="0.1"/>
</g>
</g>
</g>
<defs>
<clipPath id="clip0_53_512">
<rect width="16" height="12" rx="2" fill="white"/>
</clipPath>
<clipPath id="clip1_53_512">
<rect width="18.6667" height="14" fill="white" transform="translate(-1.33337 -1)"/>
</clipPath>
</defs>
</svg>
