<svg width="16" height="16" viewBox="0 0 16 16" fill="none" xmlns="http://www.w3.org/2000/svg">
<path d="M16 8C16 3.58172 12.4183 0 8 0C3.58172 0 0 3.58172 0 8C0 12.4183 3.58172 16 8 16C12.4183 16 16 12.4183 16 8Z" fill="#0077B5"/>
<path d="M8.4167 11.75H6.75V6.75H8.4167V7.5833C8.7719 7.1314 9.3107 6.8619 9.8854 6.8487C10.919 6.8545 11.753 7.6956 11.75 8.7292V11.75H10.0833V8.9375C10.0167 8.4719 9.6174 8.1265 9.1471 8.1275C8.9414 8.134 8.7472 8.2241 8.6094 8.3769C8.4715 8.5298 8.4019 8.7322 8.4167 8.9375V11.75ZM5.9167 11.75H4.25V6.75H5.9167V11.75ZM5.0833 5.9167C4.6231 5.9167 4.25 5.5436 4.25 5.0833C4.25 4.6231 4.6231 4.25 5.0833 4.25C5.5436 4.25 5.9167 4.6231 5.9167 5.0833C5.9167 5.3043 5.8289 5.5163 5.6726 5.6726C5.5163 5.8289 5.3043 5.9167 5.0833 5.9167Z" fill="white"/>
</svg>
