<svg width="16" height="16" viewBox="0 0 16 16" fill="none" xmlns="http://www.w3.org/2000/svg">
<g clip-path="url(#clip0_37_337)">
<rect width="16" height="16" rx="8" fill="#E2E6EE"/>
<path d="M6.52709 11.5563C5.68452 11.5563 4.92492 11.0487 4.60243 10.2703C4.27994 9.49191 4.45806 8.59588 5.05376 8.00001L5.93793 7.11584L6.52709 7.70501L5.64334 8.58876C5.32753 8.90457 5.2042 9.36487 5.31979 9.79627C5.43538 10.2277 5.77235 10.5646 6.20375 10.6802C6.63515 10.7958 7.09545 10.6725 7.41126 10.3567L8.29501 9.47293L8.88418 10.0625L8.00043 10.9463C7.61046 11.3381 7.07995 11.5578 6.52709 11.5563ZM6.82168 9.76751L6.23251 9.17834L9.17876 6.23209L9.76793 6.82126L6.82209 9.76709L6.82168 9.76751ZM10.0629 8.88376L9.47334 8.29459L10.3571 7.41084C10.6772 7.09598 10.8038 6.63362 10.6889 6.19958C10.5739 5.76555 10.2349 5.42653 9.80093 5.31144C9.36692 5.19636 8.90453 5.32289 8.58959 5.64293L7.70543 6.52668L7.11626 5.93751L8.00043 5.05334C8.81504 4.24583 10.1292 4.24871 10.9402 5.05978C11.7513 5.87085 11.7542 7.18497 10.9467 7.99959L10.0629 8.88334V8.88376Z" fill="#79819A"/>
</g>
<defs>
<clipPath id="clip0_37_337">
<rect width="16" height="16" rx="8" fill="white"/>
</clipPath>
</defs>
</svg>
