<svg width="92" height="100" viewBox="0 0 92 100" fill="none" xmlns="http://www.w3.org/2000/svg">
  <path
    d="M23.0648 8.21847C23.0648 7.58325 23.3824 6.96315 23.9571 6.61529C34.045 0.399199 45.9327 -1.52159 57.4423 1.21591C68.9519 3.95341 78.7071 11.0013 84.9232 21.0893C97.7335 41.8852 91.2452 69.23 70.4492 82.0554C69.5569 82.5998 68.3923 82.3276 67.8479 81.4353C67.3034 80.5429 67.5756 79.3784 68.468 78.8339C87.4943 67.1126 93.4231 42.0969 81.7169 23.0705C76.0301 13.8447 67.1068 7.38663 56.5802 4.89112C46.0537 2.39561 35.1793 4.15003 25.9535 9.82165C25.0612 10.3661 23.8966 10.0939 23.3521 9.20155C23.1555 8.89906 23.0648 8.5512 23.0648 8.21847Z"
    fill="#D97706" />
  <path
    d="M29.4319 18.5335C29.4319 17.8983 29.7495 17.2782 30.3242 16.9304C37.6444 12.4233 46.2804 11.0168 54.6441 13.0132C63.0079 14.9944 70.1012 20.1216 74.6082 27.4569C79.1153 34.777 80.5218 43.413 78.5254 51.7768C76.5441 60.1405 71.417 67.2338 64.0817 71.7409C63.1894 72.2853 62.0248 72.0131 61.4803 71.1208C60.9358 70.2284 61.2081 69.0639 62.1004 68.5194C75.4401 60.3069 79.5992 42.7778 71.3867 29.4382C67.409 22.9801 61.1476 18.4428 53.7669 16.6884C46.3862 14.9339 38.7636 16.159 32.3055 20.1518C31.4132 20.6963 30.2486 20.4241 29.7041 19.5317C29.5075 19.2293 29.4168 18.8814 29.4168 18.5487L29.4319 18.5335Z"
    fill="#D97706" />
  <path
    d="M35.7844 28.8484C35.7844 28.2132 36.102 27.5931 36.6767 27.2452C41.2442 24.4321 46.6285 23.57 51.8464 24.7951C57.0643 26.0353 61.4806 29.2265 64.2937 33.794C67.1068 38.3616 67.9689 43.7458 66.7438 48.9637C65.5036 54.1816 62.3124 58.5979 57.7449 61.411C56.8525 61.9555 55.688 61.6833 55.1435 60.7909C54.599 59.8986 54.8712 58.734 55.7636 58.1896C59.469 55.9058 62.0704 52.3213 63.0686 48.0865C64.0668 43.8517 63.3711 39.4808 61.0873 35.7753C56.3837 28.1224 46.326 25.7479 38.6731 30.4516C37.7808 30.996 36.6162 30.7238 36.0717 29.8315C35.8751 29.529 35.7844 29.1811 35.7844 28.8484Z"
    fill="#D97706" />
  <path
    d="M42.1365 39.1628C42.1365 38.5276 42.4541 37.9075 43.0288 37.5596C46.7646 35.2608 51.6648 36.4253 53.9637 40.161C56.2626 43.8967 55.0981 48.797 51.3623 51.0959C50.47 51.6404 49.3054 51.3681 48.761 50.4758C48.2165 49.5835 48.4887 48.4189 49.3811 47.8744C51.3321 46.6645 51.9522 44.0934 50.7422 42.1423C50.1524 41.1895 49.2449 40.524 48.156 40.2669C47.067 40.0098 45.9478 40.1913 45.0101 40.7811C44.1178 41.3256 42.9532 41.0534 42.4087 40.161C42.2121 39.8585 42.1214 39.5107 42.1214 39.1779L42.1365 39.1628Z"
    fill="#D97706" />
  <path
    d="M-0.000184995 49.5529C-0.000184825 45.6509 0.453544 41.7337 1.37613 37.8316C4.47661 24.7491 12.5076 13.6629 23.9719 6.59988C24.8642 6.0554 26.0288 6.32764 26.5732 7.21998C27.1177 8.11231 26.8455 9.27688 25.9531 9.82136C15.351 16.3551 7.92496 26.6094 5.05134 38.7088C2.17772 50.8083 4.18925 63.3161 10.723 73.9182C17.2567 84.5204 27.5109 91.9464 39.6104 94.82C51.7098 97.6936 64.2176 95.6821 74.8198 89.1484C75.7121 88.6039 76.8767 88.8762 77.4212 89.7685C77.9656 90.6608 77.6934 91.8254 76.8011 92.3699C65.3368 99.4329 40.9958 100 38.7483 98.5103C25.6658 95.4099 14.5796 87.3788 7.51659 75.9146C2.55582 67.8534 -0.000185399 58.7939 -0.000184996 49.5681L-0.000184995 49.5529Z"
    fill="#D97706" />
  <path
    d="M12.1448 49.5385C12.1448 36.698 18.6029 24.1297 30.3242 16.9154C31.2165 16.3709 32.3811 16.6431 32.9256 17.5355C33.4701 18.4278 33.1978 19.5924 32.3055 20.1368C16.1225 30.1038 11.071 51.3837 21.0379 67.5516C25.8777 75.4011 33.4701 80.8912 42.4085 83.0086C51.3621 85.1411 60.6031 83.6438 68.4526 78.8041C69.3449 78.2596 70.5095 78.5318 71.054 79.4242C71.5985 80.3165 71.3262 81.4811 70.4339 82.0255C61.7374 87.3947 51.468 89.0432 41.5313 86.6838C31.5947 84.3244 23.1704 78.2293 17.8164 69.5329C13.9748 63.3016 12.1448 56.3747 12.1448 49.5385Z"
    fill="#D97706" />
  <path
    d="M24.2444 49.5225C24.2444 47.4958 24.4864 45.4691 24.9552 43.4425C26.5735 36.6517 30.7327 30.9044 36.6766 27.2444C37.5689 26.6999 38.7335 26.9721 39.278 27.8644C39.8224 28.7568 39.5502 29.9214 38.6579 30.4658C33.5761 33.5966 30.0068 38.5271 28.6305 44.3197C27.2541 50.1274 28.2221 56.1167 31.3528 61.1984C34.4836 66.2802 39.4141 69.8495 45.2067 71.2259C51.0144 72.6022 57.0037 71.6342 62.1006 68.5035C62.9929 67.959 64.1575 68.2312 64.7019 69.1236C65.2464 70.0159 64.9742 71.1805 64.0818 71.725C51.816 79.2871 35.6935 75.4455 28.1313 63.1948C25.5602 59.0205 24.2293 54.3169 24.2293 49.5225L24.2444 49.5225Z"
    fill="#D97706" />
  <path
    d="M36.3889 49.508C36.3889 44.8043 38.7483 40.2065 43.0436 37.5598C43.9359 37.0153 45.1005 37.2875 45.645 38.1799C46.1895 39.0722 45.9172 40.2368 45.0249 40.7813C40.2305 43.7456 38.718 50.0525 41.6824 54.8469C43.1192 57.176 45.3727 58.8094 48.0195 59.4295C50.6814 60.0648 53.4189 59.611 55.748 58.1893C56.6403 57.6449 57.8049 57.9171 58.3494 58.8094C58.8939 59.7018 58.6216 60.8664 57.7293 61.4108C51.1502 65.4641 42.4991 63.4072 38.4609 56.8282C37.0544 54.5444 36.3889 52.0035 36.3889 49.508Z"
    fill="#D97706" />
</svg>
