<?xml version="1.0" encoding="UTF-8"?>
<svg id="Capa_2" data-name="Capa 2" xmlns="http://www.w3.org/2000/svg" viewBox="0 0 44.05 39.59">
  <defs>
    <style>
      .cls-1 {
        fill: #173042;
        stroke-width: 0px;
      }
    </style>
  </defs>
  <g id="icons">
    <g>
      <path class="cls-1" d="m9.73,7.24c-1.66-.67-2.45-1.46-3.12-3.12-.19-.47-.87-.47-1.06,0-.67,1.66-1.46,2.45-3.12,3.12-.47.19-.47.87,0,1.06,1.66.67,2.45,1.46,3.12,3.12.19.47.87.47,1.06,0,.67-1.66,1.46-2.45,3.12-3.12.47-.19.47-.87,0-1.06Zm7.85,7.94c-1.38,0-2.5,1.12-2.5,2.5s1.12,2.5,2.5,2.5,2.5-1.12,2.5-2.5-1.12-2.5-2.5-2.5Zm15.5,6c-2.21,0-4,1.79-4,4s1.79,4,4,4,4-1.79,4-4-1.79-4-4-4Z"/>
      <path class="cls-1" d="m42.39,2.49c-4.58-5.31-17.11-1.86-28.53,7.83C5.93,17.06.5,25.3.03,31.32c-.18,2.33.39,4.33,1.64,5.78,1.45,1.68,3.71,2.49,6.49,2.49,5.18,0,12.17-2.8,19.13-8,.66-.5.8-1.44.3-2.1-.5-.66-1.44-.8-2.1-.3-10.16,7.59-18.94,8.98-21.56,5.96-.73-.84-1.04-2.05-.92-3.59.4-5.18,5.54-12.79,12.78-18.95C24.36,5.34,36.46.2,40.12,4.45c1.97,2.28.77,7.36-3.05,12.94-.47.68-.29,1.62.39,2.08.69.47,1.62.29,2.08-.39,4.75-6.95,5.82-13.15,2.85-16.6Zm-28.93.09c.88.35,1.3.77,1.66,1.66.1.25.46.25.56,0,.35-.88.77-1.3,1.66-1.66.25-.1.25-.46,0-.56-.88-.35-1.3-.77-1.66-1.66-.1-.25-.46-.25-.56,0-.35.88-.77,1.3-1.66,1.66-.25.1-.25.46,0,.56Zm17.42,32.88c-.97-.39-1.44-.85-1.83-1.83-.11-.28-.51-.28-.62,0-.39.97-.85,1.44-1.83,1.83-.28.11-.28.51,0,.62.97.39,1.44.85,1.83,1.83.11.28.51.28.62,0,.39-.97.85-1.44,1.83-1.83.28-.11.28-.51,0-.62Zm-8.65-23.53c-.68.48-.84,1.41-.37,2.09.48.68,1.41.84,2.09.37,4.42-3.1,7.15-3.92,8.04-3.93-.17,1.38-2.98,5.66-8.8,10.59-5.87,4.98-10.58,7.06-12,7.01.1-.58.69-2.06,2.73-4.55.53-.64.43-1.59-.21-2.11-.64-.53-1.59-.43-2.11.21-3.27,3.99-4.21,6.85-2.77,8.49.58.66,1.39.94,2.35.94,4.7,0,12.86-6.78,13.95-7.7,4.38-3.72,9.59-9.3,9.85-12.79.08-1.07-.31-1.75-.64-2.14-2.35-2.68-8.59,1.05-12.11,3.52Z"/>
    </g>
  </g>
</svg>