<svg width="16" height="16" viewBox="0 0 16 16" fill="none" xmlns="http://www.w3.org/2000/svg">
<g clip-path="url(#clip0_37_345)">
<rect width="16" height="16" rx="8" fill="#E2E6EE"/>
<path d="M10.9156 11.3333C7.36074 11.3383 4.66283 8.60808 4.66663 5.08434C4.66663 4.85422 4.85318 4.66663 5.0833 4.66663H6.18303C6.38952 4.66663 6.56493 4.81835 6.59525 5.0226C6.66792 5.51212 6.81045 5.9887 7.01849 6.43775L7.06131 6.53017C7.12085 6.65867 7.08049 6.81135 6.96524 6.89366C6.62467 7.13687 6.49451 7.62644 6.75983 8.00844C7.09278 8.48781 7.51248 8.90742 7.99174 9.24022C8.37372 9.50546 8.86321 9.37532 9.10642 9.03481C9.18878 8.9195 9.34155 8.87913 9.47012 8.93869L9.56212 8.9813C10.0112 9.18933 10.4878 9.33187 10.9774 9.40452C11.1816 9.43484 11.3333 9.61024 11.3333 9.81674V10.9166C11.3333 11.1467 11.1463 11.3333 10.9162 11.3333L10.9156 11.3333Z" fill="#79819A"/>
</g>
<defs>
<clipPath id="clip0_37_345">
<rect width="16" height="16" rx="8" fill="white"/>
</clipPath>
</defs>
</svg>
