<svg width="6" height="5" viewBox="0 0 6 5" fill="none" xmlns="http://www.w3.org/2000/svg">
<path d="M1.09477 2.65774C0.441176 2.65774 0 2.20278 0 1.52876C0 0.922141 0.506536 0.416626 1.19281 0.416626C1.94444 0.416626 2.5 1.02324 2.5 1.95002C2.5 4.05633 0.964052 4.89886 0 4.99996V4.07318C0.653595 3.95523 1.38889 3.29806 1.42157 2.57349C1.38889 2.59034 1.25817 2.65774 1.09477 2.65774Z" fill="#79819A"/>
<path d="M4.4281 2.65774C3.77451 2.65774 3.33333 2.20278 3.33333 1.52876C3.33333 0.922141 3.83987 0.416626 4.52614 0.416626C5.27778 0.416626 5.83333 1.02324 5.83333 1.95002C5.83333 4.05633 4.29738 4.89886 3.33333 4.99996V4.07318C3.98693 3.95523 4.72222 3.29806 4.7549 2.57349C4.72222 2.59034 4.5915 2.65774 4.4281 2.65774Z" fill="#79819A"/>
</svg>
