<svg width="114" height="12" viewBox="0 0 114 12" fill="none" xmlns="http://www.w3.org/2000/svg">
<path d="M0.912 9V0.599999H2.292V9H0.912ZM1.86 5.4V4.14H6.132V5.4H1.86ZM1.86 1.86V0.599999H6.336V1.86H1.86ZM10.0129 9.12C9.52488 9.12 9.08887 9.012 8.70487 8.796C8.32887 8.58 8.03287 8.284 7.81687 7.908C7.60887 7.524 7.50487 7.084 7.50487 6.588V3.24H8.82487V6.528C8.82487 6.808 8.86887 7.048 8.95687 7.248C9.05287 7.44 9.18888 7.588 9.36488 7.692C9.54888 7.796 9.76488 7.848 10.0129 7.848C10.3969 7.848 10.6889 7.736 10.8889 7.512C11.0969 7.28 11.2009 6.952 11.2009 6.528V3.24H12.5209V6.588C12.5209 7.092 12.4129 7.536 12.1969 7.92C11.9889 8.296 11.6969 8.592 11.3209 8.808C10.9449 9.016 10.5089 9.12 10.0129 9.12ZM13.9681 9V0.36H15.2881V9H13.9681ZM16.8772 9V0.36H18.1972V9H16.8772ZM19.7862 6.564V5.316H23.8542V6.564H19.7862ZM27.6411 9.12C26.9771 9.12 26.4131 9 25.9491 8.76C25.4851 8.52 25.0691 8.168 24.7011 7.704L25.6371 6.768C25.8691 7.104 26.1451 7.368 26.4651 7.56C26.7851 7.744 27.1931 7.836 27.6891 7.836C28.1531 7.836 28.5211 7.74 28.7931 7.548C29.0731 7.356 29.2131 7.092 29.2131 6.756C29.2131 6.476 29.1411 6.248 28.9971 6.072C28.8531 5.896 28.6611 5.752 28.4211 5.64C28.1891 5.52 27.9291 5.416 27.6411 5.328C27.3611 5.232 27.0771 5.128 26.7891 5.016C26.5091 4.896 26.2491 4.748 26.0091 4.572C25.7771 4.396 25.5891 4.168 25.4451 3.888C25.3011 3.608 25.2291 3.252 25.2291 2.82C25.2291 2.324 25.3491 1.904 25.5891 1.56C25.8371 1.208 26.1691 0.94 26.5851 0.756C27.0011 0.572 27.4651 0.48 27.9771 0.48C28.5291 0.48 29.0211 0.588 29.4531 0.804C29.8931 1.02 30.2491 1.296 30.5211 1.632L29.5851 2.568C29.3451 2.296 29.0931 2.096 28.8291 1.968C28.5731 1.832 28.2771 1.764 27.9411 1.764C27.5251 1.764 27.1971 1.848 26.9571 2.016C26.7251 2.184 26.6091 2.42 26.6091 2.724C26.6091 2.98 26.6811 3.188 26.8251 3.348C26.9691 3.5 27.1571 3.632 27.3891 3.744C27.6291 3.848 27.8891 3.948 28.1691 4.044C28.4571 4.14 28.7411 4.248 29.0211 4.368C29.3091 4.488 29.5691 4.644 29.8011 4.836C30.0411 5.02 30.2331 5.26 30.3771 5.556C30.5211 5.852 30.5931 6.224 30.5931 6.672C30.5931 7.424 30.3251 8.02 29.7891 8.46C29.2611 8.9 28.5451 9.12 27.6411 9.12ZM32.785 9V0.84H34.105V9H32.785ZM31.405 4.44V3.24H35.485V4.44H31.405ZM38.8121 9.12C38.2921 9.12 37.8201 8.988 37.3961 8.724C36.9801 8.46 36.6481 8.104 36.4001 7.656C36.1601 7.2 36.0401 6.692 36.0401 6.132C36.0401 5.564 36.1601 5.056 36.4001 4.608C36.6481 4.152 36.9801 3.792 37.3961 3.528C37.8201 3.256 38.2921 3.12 38.8121 3.12C39.2521 3.12 39.6401 3.216 39.9761 3.408C40.3201 3.592 40.5921 3.848 40.7921 4.176C40.9921 4.504 41.0921 4.876 41.0921 5.292V6.948C41.0921 7.364 40.9921 7.736 40.7921 8.064C40.6001 8.392 40.3321 8.652 39.9881 8.844C39.6441 9.028 39.2521 9.12 38.8121 9.12ZM39.0281 7.872C39.5161 7.872 39.9081 7.708 40.2041 7.38C40.5081 7.052 40.6601 6.632 40.6601 6.12C40.6601 5.776 40.5921 5.472 40.4561 5.208C40.3201 4.944 40.1281 4.74 39.8801 4.596C39.6401 4.444 39.3561 4.368 39.0281 4.368C38.7081 4.368 38.4241 4.444 38.1761 4.596C37.9361 4.74 37.7441 4.944 37.6001 5.208C37.4641 5.472 37.3961 5.776 37.3961 6.12C37.3961 6.464 37.4641 6.768 37.6001 7.032C37.7441 7.296 37.9361 7.504 38.1761 7.656C38.4241 7.8 38.7081 7.872 39.0281 7.872ZM40.5761 9V7.452L40.8041 6.048L40.5761 4.656V3.24H41.8961V9H40.5761ZM46.1331 9.12C45.5651 9.12 45.0491 8.988 44.5851 8.724C44.1291 8.46 43.7691 8.1 43.5051 7.644C43.2411 7.188 43.1091 6.68 43.1091 6.12C43.1091 5.552 43.2411 5.044 43.5051 4.596C43.7691 4.14 44.1291 3.78 44.5851 3.516C45.0491 3.252 45.5651 3.12 46.1331 3.12C46.5811 3.12 46.9971 3.208 47.3811 3.384C47.7731 3.552 48.1051 3.796 48.3771 4.116L47.5131 4.992C47.3451 4.792 47.1411 4.644 46.9011 4.548C46.6691 4.444 46.4131 4.392 46.1331 4.392C45.8051 4.392 45.5131 4.468 45.2571 4.62C45.0091 4.764 44.8131 4.964 44.6691 5.22C44.5331 5.476 44.4651 5.776 44.4651 6.12C44.4651 6.456 44.5331 6.756 44.6691 7.02C44.8131 7.276 45.0091 7.48 45.2571 7.632C45.5131 7.776 45.8051 7.848 46.1331 7.848C46.4131 7.848 46.6691 7.8 46.9011 7.704C47.1411 7.6 47.3451 7.448 47.5131 7.248L48.3771 8.124C48.1051 8.444 47.7731 8.692 47.3811 8.868C46.9971 9.036 46.5811 9.12 46.1331 9.12ZM53.1087 9L50.6727 6.06L53.0967 3.24H54.6687L51.8847 6.408L51.9447 5.652L54.7887 9H53.1087ZM49.4487 9V0.36H50.7687V9H49.4487ZM59.348 9V7.74H61.556C62.132 7.74 62.636 7.616 63.068 7.368C63.508 7.12 63.848 6.776 64.088 6.336C64.336 5.888 64.46 5.372 64.46 4.788C64.46 4.212 64.336 3.704 64.088 3.264C63.84 2.824 63.496 2.48 63.056 2.232C62.624 1.984 62.124 1.86 61.556 1.86H59.348V0.599999H61.592C62.2 0.599999 62.764 0.707999 63.284 0.924C63.804 1.132 64.256 1.428 64.64 1.812C65.032 2.188 65.336 2.632 65.552 3.144C65.768 3.648 65.876 4.2 65.876 4.8C65.876 5.392 65.768 5.944 65.552 6.456C65.336 6.968 65.036 7.416 64.652 7.8C64.268 8.176 63.816 8.472 63.296 8.688C62.776 8.896 62.216 9 61.616 9H59.348ZM58.4 9V0.599999H59.78V9H58.4ZM69.8988 9.12C69.3228 9.12 68.8028 8.992 68.3388 8.736C67.8828 8.472 67.5188 8.112 67.2468 7.656C66.9828 7.2 66.8508 6.688 66.8508 6.12C66.8508 5.552 66.9828 5.044 67.2468 4.596C67.5108 4.14 67.8668 3.78 68.3148 3.516C68.7708 3.252 69.2748 3.12 69.8268 3.12C70.3628 3.12 70.8348 3.244 71.2428 3.492C71.6588 3.74 71.9828 4.08 72.2148 4.512C72.4548 4.944 72.5748 5.436 72.5748 5.988C72.5748 6.084 72.5668 6.184 72.5508 6.288C72.5428 6.384 72.5268 6.492 72.5028 6.612H67.7748V5.532H71.8188L71.3268 5.964C71.3108 5.612 71.2428 5.316 71.1228 5.076C71.0028 4.836 70.8308 4.652 70.6068 4.524C70.3908 4.396 70.1228 4.332 69.8028 4.332C69.4668 4.332 69.1748 4.404 68.9268 4.548C68.6788 4.692 68.4868 4.896 68.3508 5.16C68.2148 5.416 68.1468 5.724 68.1468 6.084C68.1468 6.444 68.2188 6.76 68.3628 7.032C68.5068 7.304 68.7108 7.516 68.9748 7.668C69.2388 7.812 69.5428 7.884 69.8868 7.884C70.1828 7.884 70.4548 7.832 70.7028 7.728C70.9588 7.624 71.1748 7.472 71.3508 7.272L72.1908 8.124C71.9108 8.452 71.5708 8.7 71.1708 8.868C70.7708 9.036 70.3468 9.12 69.8988 9.12ZM75.6032 9L72.9752 3.24H74.4392L76.4432 7.932H75.5792L77.5952 3.24H78.9992L76.3712 9H75.6032ZM82.3732 9.12C81.7972 9.12 81.2772 8.992 80.8132 8.736C80.3572 8.472 79.9932 8.112 79.7212 7.656C79.4572 7.2 79.3252 6.688 79.3252 6.12C79.3252 5.552 79.4572 5.044 79.7212 4.596C79.9852 4.14 80.3412 3.78 80.7892 3.516C81.2452 3.252 81.7492 3.12 82.3012 3.12C82.8372 3.12 83.3092 3.244 83.7172 3.492C84.1332 3.74 84.4572 4.08 84.6892 4.512C84.9292 4.944 85.0492 5.436 85.0492 5.988C85.0492 6.084 85.0412 6.184 85.0252 6.288C85.0172 6.384 85.0012 6.492 84.9772 6.612H80.2492V5.532H84.2932L83.8012 5.964C83.7852 5.612 83.7172 5.316 83.5972 5.076C83.4772 4.836 83.3052 4.652 83.0812 4.524C82.8652 4.396 82.5972 4.332 82.2772 4.332C81.9412 4.332 81.6492 4.404 81.4012 4.548C81.1532 4.692 80.9612 4.896 80.8252 5.16C80.6892 5.416 80.6212 5.724 80.6212 6.084C80.6212 6.444 80.6932 6.76 80.8372 7.032C80.9812 7.304 81.1852 7.516 81.4492 7.668C81.7132 7.812 82.0172 7.884 82.3612 7.884C82.6572 7.884 82.9292 7.832 83.1772 7.728C83.4332 7.624 83.6492 7.472 83.8252 7.272L84.6652 8.124C84.3852 8.452 84.0452 8.7 83.6452 8.868C83.2452 9.036 82.8212 9.12 82.3732 9.12ZM86.2273 9V0.36H87.5473V9H86.2273ZM91.7764 9.12C91.2164 9.12 90.7084 8.988 90.2524 8.724C89.7964 8.452 89.4324 8.088 89.1604 7.632C88.8964 7.176 88.7644 6.668 88.7644 6.108C88.7644 5.548 88.8964 5.044 89.1604 4.596C89.4324 4.148 89.7964 3.792 90.2524 3.528C90.7084 3.256 91.2164 3.12 91.7764 3.12C92.3444 3.12 92.8564 3.252 93.3124 3.516C93.7684 3.78 94.1284 4.14 94.3924 4.596C94.6644 5.044 94.8004 5.548 94.8004 6.108C94.8004 6.668 94.6644 7.176 94.3924 7.632C94.1284 8.088 93.7684 8.452 93.3124 8.724C92.8564 8.988 92.3444 9.12 91.7764 9.12ZM91.7764 7.848C92.1044 7.848 92.3924 7.776 92.6404 7.632C92.8964 7.48 93.0924 7.272 93.2284 7.008C93.3724 6.744 93.4444 6.444 93.4444 6.108C93.4444 5.772 93.3724 5.476 93.2284 5.22C93.0844 4.964 92.8884 4.764 92.6404 4.62C92.3924 4.468 92.1044 4.392 91.7764 4.392C91.4564 4.392 91.1684 4.468 90.9124 4.62C90.6644 4.764 90.4684 4.964 90.3244 5.22C90.1884 5.476 90.1204 5.772 90.1204 6.108C90.1204 6.444 90.1884 6.744 90.3244 7.008C90.4684 7.272 90.6644 7.48 90.9124 7.632C91.1684 7.776 91.4564 7.848 91.7764 7.848ZM99.1021 9.12C98.6621 9.12 98.2701 9.028 97.9261 8.844C97.5821 8.652 97.3101 8.392 97.1101 8.064C96.9181 7.736 96.8221 7.364 96.8221 6.948V5.292C96.8221 4.876 96.9221 4.504 97.1221 4.176C97.3221 3.848 97.5941 3.592 97.9381 3.408C98.2821 3.216 98.6701 3.12 99.1021 3.12C99.6221 3.12 100.09 3.256 100.506 3.528C100.93 3.792 101.262 4.152 101.502 4.608C101.75 5.056 101.874 5.564 101.874 6.132C101.874 6.692 101.75 7.2 101.502 7.656C101.262 8.104 100.93 8.46 100.506 8.724C100.09 8.988 99.6221 9.12 99.1021 9.12ZM98.8861 7.872C99.2061 7.872 99.4861 7.8 99.7261 7.656C99.9741 7.504 100.166 7.296 100.302 7.032C100.446 6.768 100.518 6.464 100.518 6.12C100.518 5.776 100.446 5.472 100.302 5.208C100.166 4.944 99.9741 4.74 99.7261 4.596C99.4861 4.444 99.2061 4.368 98.8861 4.368C98.5661 4.368 98.2821 4.444 98.0341 4.596C97.7861 4.74 97.5941 4.944 97.4581 5.208C97.3221 5.472 97.2541 5.776 97.2541 6.12C97.2541 6.464 97.3221 6.768 97.4581 7.032C97.5941 7.296 97.7861 7.504 98.0341 7.656C98.2821 7.8 98.5661 7.872 98.8861 7.872ZM96.0181 11.4V3.24H97.3381V4.788L97.1101 6.192L97.3381 7.584V11.4H96.0181ZM105.775 9.12C105.199 9.12 104.679 8.992 104.215 8.736C103.759 8.472 103.395 8.112 103.123 7.656C102.859 7.2 102.727 6.688 102.727 6.12C102.727 5.552 102.859 5.044 103.123 4.596C103.387 4.14 103.743 3.78 104.191 3.516C104.647 3.252 105.151 3.12 105.703 3.12C106.239 3.12 106.711 3.244 107.119 3.492C107.535 3.74 107.859 4.08 108.091 4.512C108.331 4.944 108.451 5.436 108.451 5.988C108.451 6.084 108.443 6.184 108.427 6.288C108.419 6.384 108.403 6.492 108.379 6.612H103.651V5.532H107.695L107.203 5.964C107.187 5.612 107.119 5.316 106.999 5.076C106.879 4.836 106.707 4.652 106.483 4.524C106.267 4.396 105.999 4.332 105.679 4.332C105.343 4.332 105.051 4.404 104.803 4.548C104.555 4.692 104.363 4.896 104.227 5.16C104.091 5.416 104.023 5.724 104.023 6.084C104.023 6.444 104.095 6.76 104.239 7.032C104.383 7.304 104.587 7.516 104.851 7.668C105.115 7.812 105.419 7.884 105.763 7.884C106.059 7.884 106.331 7.832 106.579 7.728C106.835 7.624 107.051 7.472 107.227 7.272L108.067 8.124C107.787 8.452 107.447 8.7 107.047 8.868C106.647 9.036 106.223 9.12 105.775 9.12ZM109.629 9V3.24H110.949V9H109.629ZM110.949 5.796L110.493 5.568C110.493 4.84 110.653 4.252 110.973 3.804C111.301 3.348 111.793 3.12 112.449 3.12C112.737 3.12 112.997 3.172 113.229 3.276C113.461 3.38 113.677 3.548 113.877 3.78L113.013 4.668C112.909 4.556 112.793 4.476 112.665 4.428C112.537 4.38 112.389 4.356 112.221 4.356C111.853 4.356 111.549 4.472 111.309 4.704C111.069 4.936 110.949 5.3 110.949 5.796Z" fill="url(#paint0_linear_56_315)"/>
<defs>
<linearGradient id="paint0_linear_56_315" x1="0" y1="-3" x2="140" y2="-3" gradientUnits="userSpaceOnUse">
<stop stop-color="#A478E8"/>
<stop offset="1" stop-color="#516CF7"/>
</linearGradient>
</defs>
</svg>
