<svg width="152" height="40" viewBox="0 0 152 40" fill="none" xmlns="http://www.w3.org/2000/svg">
<g clip-path="url(#clip0_1_1192)">
<path d="M9.72998 7.44491C8.06998 6.77491 7.27998 5.98491 6.60998 4.32491C6.41998 3.85491 5.73998 3.85491 5.54998 4.32491C4.87998 5.98491 4.08998 6.77491 2.42998 7.44491C1.95998 7.63491 1.95998 8.31491 2.42998 8.50491C4.08998 9.17491 4.87998 9.96491 5.54998 11.6249C5.73998 12.0949 6.41998 12.0949 6.60998 11.6249C7.27998 9.96491 8.06998 9.17491 9.72998 8.50491C10.2 8.31491 10.2 7.63491 9.72998 7.44491ZM17.58 15.3849C16.2 15.3849 15.08 16.5049 15.08 17.8849C15.08 19.2649 16.2 20.3849 17.58 20.3849C18.96 20.3849 20.08 19.2649 20.08 17.8849C20.08 16.5049 18.96 15.3849 17.58 15.3849ZM33.08 21.3849C30.87 21.3849 29.08 23.1749 29.08 25.3849C29.08 27.5949 30.87 29.3849 33.08 29.3849C35.29 29.3849 37.08 27.5949 37.08 25.3849C37.08 23.1749 35.29 21.3849 33.08 21.3849Z" fill="#173042"/>
<path d="M42.39 2.69493C37.81 -2.61507 25.28 0.83493 13.86 10.5249C5.92999 17.2649 0.499989 25.5049 0.029989 31.5249C-0.150011 33.8549 0.419989 35.8549 1.66999 37.3049C3.11999 38.9849 5.37999 39.7949 8.15999 39.7949C13.34 39.7949 20.33 36.9949 27.29 31.7949C27.95 31.2949 28.09 30.3549 27.59 29.6949C27.09 29.0349 26.15 28.8949 25.49 29.3949C15.33 36.9849 6.54999 38.3749 3.92999 35.3549C3.19999 34.5149 2.88999 33.3049 3.00999 31.7649C3.40999 26.5849 8.54999 18.9749 15.79 12.8149C24.36 5.54493 36.46 0.40493 40.12 4.65493C42.09 6.93493 40.89 12.0149 37.07 17.5949C36.6 18.2749 36.78 19.2149 37.46 19.6749C38.15 20.1449 39.08 19.9649 39.54 19.2849C44.29 12.3349 45.36 6.13493 42.39 2.68493V2.69493ZM13.46 2.78493C14.34 3.13493 14.76 3.55493 15.12 4.44493C15.22 4.69493 15.58 4.69493 15.68 4.44493C16.03 3.56493 16.45 3.14493 17.34 2.78493C17.59 2.68493 17.59 2.32493 17.34 2.22493C16.46 1.87493 16.04 1.45493 15.68 0.56493C15.58 0.31493 15.22 0.31493 15.12 0.56493C14.77 1.44493 14.35 1.86493 13.46 2.22493C13.21 2.32493 13.21 2.68493 13.46 2.78493ZM30.88 35.6649C29.91 35.2749 29.44 34.8149 29.05 33.8349C28.94 33.5549 28.54 33.5549 28.43 33.8349C28.04 34.8049 27.58 35.2749 26.6 35.6649C26.32 35.7749 26.32 36.1749 26.6 36.2849C27.57 36.6749 28.04 37.1349 28.43 38.1149C28.54 38.3949 28.94 38.3949 29.05 38.1149C29.44 37.1449 29.9 36.6749 30.88 36.2849C31.16 36.1749 31.16 35.7749 30.88 35.6649ZM22.23 12.1349C21.55 12.6149 21.39 13.5449 21.86 14.2249C22.34 14.9049 23.27 15.0649 23.95 14.5949C28.37 11.4949 31.1 10.6749 31.99 10.6649C31.82 12.0449 29.01 16.3249 23.19 21.2549C17.32 26.2349 12.61 28.3149 11.19 28.2649C11.29 27.6849 11.88 26.2049 13.92 23.7149C14.45 23.0749 14.35 22.1249 13.71 21.6049C13.07 21.0749 12.12 21.1749 11.6 21.8149C8.32999 25.8049 7.38999 28.6649 8.82999 30.3049C9.40999 30.9649 10.22 31.2449 11.18 31.2449C15.88 31.2449 24.04 24.4649 25.13 23.5449C29.51 19.8249 34.72 14.2449 34.98 10.7549C35.06 9.68493 34.67 9.00493 34.34 8.61493C31.99 5.93493 25.75 9.66493 22.23 12.1349Z" fill="#173042"/>
</g>
<path d="M56.946 28.912L61.938 14.544H65.81L59.09 32.176H54.738L48.05 14.544H51.954L56.946 28.912Z" fill="#173042"/>
<path d="M70.4235 12.208C69.7622 12.208 69.2075 11.984 68.7595 11.536C68.3115 11.088 68.0875 10.5333 68.0875 9.87201C68.0875 9.21068 68.3115 8.65601 68.7595 8.20801C69.2075 7.76001 69.7622 7.53601 70.4235 7.53601C71.0635 7.53601 71.6075 7.76001 72.0555 8.20801C72.5035 8.65601 72.7275 9.21068 72.7275 9.87201C72.7275 10.5333 72.5035 11.088 72.0555 11.536C71.6075 11.984 71.0635 12.208 70.4235 12.208ZM72.2155 14.544V32.176H68.5675V14.544H72.2155Z" fill="#173042"/>
<path d="M83.405 32.464C82.0183 32.464 80.7703 32.2187 79.661 31.728C78.573 31.216 77.709 30.5333 77.069 29.68C76.429 28.8053 76.0877 27.8347 76.045 26.768H79.821C79.885 27.5147 80.237 28.144 80.877 28.656C81.5383 29.1467 82.3597 29.392 83.341 29.392C84.365 29.392 85.1543 29.2 85.709 28.816C86.285 28.4107 86.573 27.8987 86.573 27.28C86.573 26.6187 86.253 26.128 85.613 25.808C84.9943 25.488 84.0023 25.136 82.637 24.752C81.3143 24.3893 80.237 24.0373 79.405 23.696C78.573 23.3547 77.8477 22.832 77.229 22.128C76.6317 21.424 76.333 20.496 76.333 19.344C76.333 18.4053 76.6103 17.552 77.165 16.784C77.7197 15.9947 78.509 15.376 79.533 14.928C80.5783 14.48 81.773 14.256 83.117 14.256C85.1223 14.256 86.733 14.768 87.949 15.792C89.1863 16.7947 89.8477 18.1707 89.933 19.92H86.285C86.221 19.1307 85.901 18.5013 85.325 18.032C84.749 17.5627 83.9703 17.328 82.989 17.328C82.029 17.328 81.293 17.5093 80.781 17.872C80.269 18.2347 80.013 18.7147 80.013 19.312C80.013 19.7813 80.1837 20.176 80.525 20.496C80.8663 20.816 81.2823 21.072 81.773 21.264C82.2637 21.4347 82.989 21.6587 83.949 21.936C85.229 22.2773 86.2743 22.6293 87.085 22.992C87.917 23.3333 88.6317 23.8453 89.229 24.528C89.8263 25.2107 90.1357 26.1173 90.157 27.248C90.157 28.2507 89.8797 29.1467 89.325 29.936C88.7703 30.7253 87.981 31.344 86.957 31.792C85.9543 32.24 84.7703 32.464 83.405 32.464Z" fill="#173042"/>
<path d="M101.747 32.464C100.083 32.464 98.5788 32.0907 97.2348 31.344C95.8908 30.576 94.8348 29.5093 94.0668 28.144C93.2988 26.7573 92.9148 25.1573 92.9148 23.344C92.9148 21.552 93.3094 19.9627 94.0988 18.576C94.8881 17.1893 95.9654 16.1227 97.3308 15.376C98.6961 14.6293 100.221 14.256 101.907 14.256C103.592 14.256 105.117 14.6293 106.483 15.376C107.848 16.1227 108.925 17.1893 109.715 18.576C110.504 19.9627 110.899 21.552 110.899 23.344C110.899 25.136 110.493 26.7253 109.683 28.112C108.872 29.4987 107.763 30.576 106.355 31.344C104.968 32.0907 103.432 32.464 101.747 32.464ZM101.747 29.296C102.685 29.296 103.56 29.072 104.371 28.624C105.203 28.176 105.875 27.504 106.387 26.608C106.899 25.712 107.155 24.624 107.155 23.344C107.155 22.064 106.909 20.9867 106.419 20.112C105.928 19.216 105.277 18.544 104.467 18.096C103.656 17.648 102.781 17.424 101.843 17.424C100.904 17.424 100.029 17.648 99.2188 18.096C98.4294 18.544 97.8001 19.216 97.3308 20.112C96.8614 20.9867 96.6268 22.064 96.6268 23.344C96.6268 25.2427 97.1068 26.7147 98.0668 27.76C99.0481 28.784 100.275 29.296 101.747 29.296Z" fill="#173042"/>
<path d="M135.849 14.256C137.236 14.256 138.473 14.544 139.561 15.12C140.67 15.696 141.534 16.5493 142.153 17.68C142.793 18.8107 143.113 20.176 143.113 21.776V32.176H139.497V22.32C139.497 20.7413 139.102 19.536 138.313 18.704C137.524 17.8507 136.446 17.424 135.081 17.424C133.716 17.424 132.628 17.8507 131.817 18.704C131.028 19.536 130.633 20.7413 130.633 22.32V32.176H127.017V22.32C127.017 20.7413 126.622 19.536 125.833 18.704C125.044 17.8507 123.966 17.424 122.601 17.424C121.236 17.424 120.148 17.8507 119.337 18.704C118.548 19.536 118.153 20.7413 118.153 22.32V32.176H114.505V14.544H118.153V16.56C118.75 15.8347 119.508 15.2693 120.425 14.864C121.342 14.4587 122.324 14.256 123.369 14.256C124.777 14.256 126.036 14.5547 127.145 15.152C128.254 15.7493 129.108 16.6133 129.705 17.744C130.238 16.6773 131.07 15.8347 132.201 15.216C133.332 14.576 134.548 14.256 135.849 14.256Z" fill="#173042"/>
<path d="M149.611 12.208C148.95 12.208 148.395 11.984 147.947 11.536C147.499 11.088 147.275 10.5333 147.275 9.87201C147.275 9.21068 147.499 8.65601 147.947 8.20801C148.395 7.76001 148.95 7.53601 149.611 7.53601C150.251 7.53601 150.795 7.76001 151.243 8.20801C151.691 8.65601 151.915 9.21068 151.915 9.87201C151.915 10.5333 151.691 11.088 151.243 11.536C150.795 11.984 150.251 12.208 149.611 12.208ZM151.403 14.544V32.176H147.755V14.544H151.403Z" fill="#173042"/>
<defs>
<clipPath id="clip0_1_1192">
<rect width="44.05" height="39.59" fill="white" transform="translate(0 0.204956)"/>
</clipPath>
</defs>
</svg>
