<svg width="339" height="102" viewBox="0 0 339 102" fill="none" xmlns="http://www.w3.org/2000/svg">
  <path
    d="M23.0648 8.21847C23.0648 7.58325 23.3824 6.96315 23.9571 6.61529C34.045 0.399199 45.9327 -1.52159 57.4423 1.21591C68.9519 3.95341 78.7071 11.0013 84.9232 21.0893C97.7335 41.8852 91.2452 69.23 70.4492 82.0554C69.5569 82.5998 68.3923 82.3276 67.8479 81.4353C67.3034 80.5429 67.5756 79.3784 68.468 78.8339C87.4943 67.1126 93.4231 42.0969 81.7169 23.0705C76.0301 13.8447 67.1068 7.38663 56.5802 4.89112C46.0537 2.39561 35.1793 4.15003 25.9535 9.82165C25.0612 10.3661 23.8966 10.0939 23.3521 9.20155C23.1555 8.89906 23.0648 8.5512 23.0648 8.21847Z"
    fill="#D97706" />
  <path
    d="M29.4319 18.5335C29.4319 17.8983 29.7495 17.2782 30.3242 16.9304C37.6444 12.4233 46.2804 11.0168 54.6441 13.0132C63.0079 14.9944 70.1012 20.1216 74.6082 27.4569C79.1153 34.777 80.5218 43.413 78.5254 51.7768C76.5441 60.1405 71.417 67.2338 64.0817 71.7409C63.1894 72.2853 62.0248 72.0131 61.4803 71.1208C60.9358 70.2284 61.2081 69.0639 62.1004 68.5194C75.4401 60.3069 79.5992 42.7778 71.3867 29.4382C67.409 22.9801 61.1476 18.4428 53.7669 16.6884C46.3862 14.9339 38.7636 16.159 32.3055 20.1518C31.4132 20.6963 30.2486 20.4241 29.7041 19.5317C29.5075 19.2293 29.4168 18.8814 29.4168 18.5487L29.4319 18.5335Z"
    fill="#D97706" />
  <path
    d="M35.7844 28.8484C35.7844 28.2131 36.102 27.593 36.6767 27.2452C41.2442 24.4321 46.6285 23.57 51.8464 24.795C57.0643 26.0352 61.4806 29.2265 64.2937 33.794C67.1068 38.3616 67.9689 43.7458 66.7438 48.9637C65.5036 54.1816 62.3124 58.5979 57.7449 61.411C56.8525 61.9555 55.688 61.6832 55.1435 60.7909C54.599 59.8986 54.8712 58.734 55.7636 58.1895C59.469 55.9058 62.0704 52.3213 63.0686 48.0865C64.0668 43.8517 63.3711 39.4808 61.0873 35.7753C56.3837 28.1224 46.326 25.7479 38.6731 30.4515C37.7808 30.996 36.6162 30.7238 36.0717 29.8314C35.8751 29.529 35.7844 29.1811 35.7844 28.8484Z"
    fill="#D97706" />
  <path
    d="M42.1365 39.1628C42.1365 38.5276 42.4541 37.9075 43.0288 37.5596C46.7646 35.2608 51.6648 36.4253 53.9637 40.161C56.2626 43.8967 55.0981 48.797 51.3623 51.0959C50.47 51.6404 49.3054 51.3681 48.761 50.4758C48.2165 49.5835 48.4887 48.4189 49.3811 47.8744C51.3321 46.6645 51.9522 44.0934 50.7422 42.1423C50.1524 41.1895 49.2449 40.524 48.156 40.2669C47.067 40.0098 45.9478 40.1913 45.0101 40.7811C44.1178 41.3256 42.9532 41.0534 42.4087 40.161C42.2121 39.8585 42.1214 39.5107 42.1214 39.1779L42.1365 39.1628Z"
    fill="#D97706" />
  <path
    d="M-0.000184995 49.5529C-0.000184825 45.6509 0.453544 41.7337 1.37613 37.8316C4.47661 24.7491 12.5076 13.6629 23.9719 6.59988C24.8642 6.0554 26.0288 6.32764 26.5732 7.21998C27.1177 8.11231 26.8455 9.27688 25.9531 9.82136C15.351 16.3551 7.92496 26.6094 5.05134 38.7088C2.17772 50.8083 4.18925 63.3161 10.723 73.9182C17.2567 84.5204 27.5109 91.9464 39.6104 94.82C51.7098 97.6936 64.2176 95.6821 74.8198 89.1484C75.7121 88.6039 76.8767 88.8762 77.4212 89.7685C77.9656 90.6608 77.6934 91.8254 76.8011 92.3699C65.3368 99.4329 40.9958 100 38.7483 98.5103C25.6658 95.4099 14.5796 87.3788 7.51659 75.9146C2.55582 67.8534 -0.000185399 58.7939 -0.000184996 49.5681L-0.000184995 49.5529Z"
    fill="#D97706" />
  <path
    d="M12.1448 49.5385C12.1448 36.698 18.6029 24.1297 30.3242 16.9154C31.2165 16.3709 32.3811 16.6431 32.9256 17.5355C33.4701 18.4278 33.1978 19.5924 32.3055 20.1368C16.1225 30.1038 11.071 51.3837 21.0379 67.5516C25.8777 75.4011 33.4701 80.8912 42.4085 83.0086C51.3621 85.1411 60.6031 83.6438 68.4526 78.8041C69.3449 78.2596 70.5095 78.5318 71.054 79.4242C71.5985 80.3165 71.3262 81.4811 70.4339 82.0255C61.7374 87.3947 51.468 89.0432 41.5313 86.6838C31.5947 84.3244 23.1704 78.2293 17.8164 69.5329C13.9748 63.3016 12.1448 56.3747 12.1448 49.5385Z"
    fill="#D97706" />
  <path
    d="M24.2444 49.5225C24.2444 47.4958 24.4864 45.4691 24.9552 43.4425C26.5735 36.6517 30.7327 30.9044 36.6766 27.2444C37.5689 26.6999 38.7335 26.9721 39.278 27.8644C39.8224 28.7568 39.5502 29.9214 38.6579 30.4658C33.5761 33.5966 30.0068 38.5271 28.6305 44.3197C27.2541 50.1274 28.2221 56.1167 31.3528 61.1984C34.4836 66.2802 39.4141 69.8495 45.2067 71.2259C51.0144 72.6022 57.0037 71.6342 62.1006 68.5035C62.9929 67.959 64.1575 68.2312 64.7019 69.1236C65.2464 70.0159 64.9742 71.1805 64.0818 71.725C51.816 79.2871 35.6935 75.4455 28.1313 63.1948C25.5602 59.0205 24.2293 54.3169 24.2293 49.5225L24.2444 49.5225Z"
    fill="#D97706" />
  <path
    d="M36.3889 49.508C36.3889 44.8043 38.7483 40.2065 43.0436 37.5598C43.9359 37.0153 45.1005 37.2875 45.645 38.1799C46.1895 39.0722 45.9172 40.2368 45.0249 40.7813C40.2305 43.7456 38.718 50.0525 41.6824 54.8469C43.1192 57.176 45.3727 58.8094 48.0195 59.4295C50.6814 60.0648 53.4189 59.611 55.748 58.1893C56.6403 57.6449 57.8049 57.9171 58.3494 58.8094C58.8939 59.7018 58.6216 60.8664 57.7293 61.4108C51.1502 65.4641 42.4991 63.4072 38.4609 56.8282C37.0544 54.5444 36.3889 52.0035 36.3889 49.508Z"
    fill="#D97706" />
  <path
    d="M146.996 33.434C146.996 36.0903 146.449 38.5903 145.355 40.934C144.293 43.2778 142.84 45.3246 140.996 47.0746C139.152 48.8246 136.996 50.2153 134.527 51.2465C132.059 52.2465 129.418 52.7465 126.605 52.7465C125.418 52.7465 124.215 52.6059 122.996 52.3246C121.777 52.0121 120.746 51.6215 119.902 51.1528L119.293 47.2153C120.355 47.6528 121.371 48.0278 122.34 48.3403C123.34 48.6215 124.355 48.7621 125.387 48.7621C127.387 48.7621 129.199 48.434 130.824 47.7778C132.48 47.1215 133.887 46.1996 135.043 45.0121C136.199 43.8246 137.09 42.4028 137.715 40.7465C138.371 39.059 138.699 37.1996 138.699 35.1684C138.699 32.5434 138.277 30.3559 137.434 28.6059C136.621 26.8559 135.527 25.4496 134.152 24.3871C132.777 23.2934 131.168 22.5278 129.324 22.0903C127.512 21.6215 125.605 21.3871 123.605 21.3871H122.48C122.137 21.3871 121.793 21.4028 121.449 21.434L114.465 72.2465C114.402 72.434 114.465 72.6371 114.652 72.8559C114.84 73.0746 115.199 73.309 115.73 73.559C116.262 73.809 116.996 74.059 117.934 74.309C118.871 74.559 120.074 74.8246 121.543 75.1059L121.215 77.5903H99.3711L99.7461 75.1059C101.715 74.6684 103.262 74.1996 104.387 73.6996C105.543 73.1684 106.152 72.684 106.215 72.2465L113.105 22.0903C112.012 22.2465 110.871 22.434 109.684 22.6528C108.527 22.8715 107.309 23.1371 106.027 23.4496V20.1684C108.809 19.2309 111.871 18.4965 115.215 17.9653C118.559 17.4028 122.262 17.1215 126.324 17.1215C129.543 17.1215 132.418 17.4653 134.949 18.1528C137.512 18.8403 139.684 19.8715 141.465 21.2465C143.246 22.6215 144.605 24.3246 145.543 26.3559C146.512 28.3871 146.996 30.7465 146.996 33.434ZM174.277 58.184C174.465 56.8403 174.684 55.4184 174.934 53.9184C175.184 52.4184 175.434 50.9653 175.684 49.559C175.934 48.1215 176.168 46.809 176.387 45.6215C176.605 44.4028 176.793 43.3871 176.949 42.5746C176.48 42.1684 175.965 41.7778 175.402 41.4028C174.871 40.9965 174.309 40.6371 173.715 40.3246C173.121 39.9809 172.512 39.7153 171.887 39.5278C171.262 39.309 170.621 39.1996 169.965 39.1996C168.559 39.1996 167.246 39.5434 166.027 40.2309C164.84 40.9184 163.73 41.8246 162.699 42.9496C161.699 44.0434 160.809 45.309 160.027 46.7465C159.246 48.184 158.574 49.6684 158.012 51.1996C157.48 52.7309 157.074 54.2465 156.793 55.7465C156.512 57.2465 156.371 58.6059 156.371 59.8246C156.371 61.7621 156.527 63.4965 156.84 65.0278C157.152 66.5278 157.574 67.809 158.105 68.8715C158.637 69.934 159.262 70.7465 159.98 71.309C160.73 71.8715 161.512 72.1528 162.324 72.1528C162.98 72.1528 163.793 71.7621 164.762 70.9809C165.73 70.1996 166.746 69.1528 167.809 67.8403C168.902 66.5278 169.996 65.0434 171.09 63.3871C172.215 61.6996 173.277 59.9653 174.277 58.184ZM189.746 73.7934C187.059 75.6371 184.762 77.0434 182.855 78.0121C180.98 79.0121 179.543 79.5121 178.543 79.5121C177.98 79.5121 177.418 79.3246 176.855 78.9496C176.293 78.5746 175.762 77.8871 175.262 76.8871C174.793 75.8871 174.387 74.5121 174.043 72.7621C173.73 71.0121 173.559 68.7778 173.527 66.059C172.684 67.4965 171.668 69.0121 170.48 70.6059C169.324 72.1684 168.09 73.6215 166.777 74.9653C165.465 76.2778 164.121 77.3559 162.746 78.1996C161.371 79.0746 160.043 79.5121 158.762 79.5121C157.699 79.5121 156.574 79.2153 155.387 78.6215C154.199 78.0278 153.09 77.0903 152.059 75.809C151.059 74.4965 150.215 72.8246 149.527 70.7934C148.871 68.7309 148.543 66.2309 148.543 63.2934C148.543 60.8246 148.84 58.4184 149.434 56.0746C150.027 53.6996 150.902 51.434 152.059 49.2778C153.246 47.1215 154.684 45.1059 156.371 43.2309C158.059 41.3246 160.012 39.6215 162.23 38.1215C163.074 37.559 163.996 37.0121 164.996 36.4809C166.027 35.9496 167.09 35.4809 168.184 35.0746C169.309 34.6684 170.434 34.3403 171.559 34.0903C172.684 33.8403 173.793 33.7153 174.887 33.7153C175.543 33.7153 176.184 33.809 176.809 33.9965C177.434 34.1528 178.043 34.3715 178.637 34.6528C179.23 34.934 179.809 35.2465 180.371 35.5903C180.934 35.9028 181.465 36.2153 181.965 36.5278C182.777 35.9965 183.637 35.5121 184.543 35.0746C185.449 34.6059 186.324 34.1528 187.168 33.7153L188.293 35.8246C187.762 36.2621 187.324 36.6528 186.98 36.9965C186.637 37.3403 186.324 37.7465 186.043 38.2153C185.793 38.6528 185.574 39.1996 185.387 39.8559C185.199 40.5121 184.996 41.3715 184.777 42.434C184.309 44.684 183.871 46.9496 183.465 49.2309C183.059 51.5121 182.699 53.6371 182.387 55.6059C182.105 57.5746 181.887 59.3246 181.73 60.8559C181.574 62.3559 181.496 63.4496 181.496 64.1371C181.496 67.2621 181.715 69.5121 182.152 70.8871C182.59 72.2621 183.168 72.9496 183.887 72.9496C184.512 72.9496 185.23 72.8715 186.043 72.7153C186.855 72.5278 187.887 72.1684 189.137 71.6371L189.746 73.7934ZM219.371 40.559C218.652 40.559 217.715 40.9028 216.559 41.5903C215.402 42.2778 214.168 43.2621 212.855 44.5434C211.574 45.7934 210.277 47.309 208.965 49.0903C207.684 50.8715 206.527 52.8715 205.496 55.0903C205.309 56.309 205.09 57.6059 204.84 58.9809C204.621 60.3246 204.387 61.7621 204.137 63.2934C204.605 64.1684 205.262 65.1059 206.105 66.1059C206.949 67.1059 207.887 68.0278 208.918 68.8715C209.98 69.7153 211.074 70.4184 212.199 70.9809C213.355 71.5121 214.48 71.7778 215.574 71.7778C217.168 71.7778 218.559 71.3559 219.746 70.5121C220.934 69.6371 221.871 68.4184 222.559 66.8559C223.059 65.7621 223.465 64.6059 223.777 63.3871C224.121 62.1684 224.371 60.9496 224.527 59.7309C224.684 58.4809 224.793 57.2621 224.855 56.0746C224.918 54.8871 224.949 53.7778 224.949 52.7465C224.949 50.7465 224.777 48.9809 224.434 47.4496C224.121 45.9184 223.699 44.6528 223.168 43.6528C222.668 42.6215 222.074 41.8559 221.387 41.3559C220.73 40.8246 220.059 40.559 219.371 40.559ZM208.027 36.809C208.027 37.6528 207.934 38.809 207.746 40.2778C207.559 41.7465 207.293 43.6528 206.949 45.9965C208.855 43.2778 210.637 41.1215 212.293 39.5278C213.949 37.9028 215.465 36.6684 216.84 35.8246C218.246 34.9496 219.527 34.3871 220.684 34.1371C221.84 33.8559 222.902 33.7153 223.871 33.7153C225.121 33.7153 226.309 34.0278 227.434 34.6528C228.59 35.2778 229.59 36.2153 230.434 37.4653C231.277 38.684 231.949 40.1996 232.449 42.0121C232.949 43.7934 233.199 45.8559 233.199 48.1996C233.199 51.5121 232.699 54.9965 231.699 58.6528C230.73 62.309 229.293 65.7934 227.387 69.1059C226.668 70.3246 225.84 71.559 224.902 72.809C223.996 74.0278 222.996 75.1371 221.902 76.1371C220.84 77.1371 219.699 77.9496 218.48 78.5746C217.262 79.1996 215.996 79.5121 214.684 79.5121C213.715 79.5121 212.715 79.2153 211.684 78.6215C210.684 78.059 209.684 77.309 208.684 76.3715C207.715 75.4028 206.746 74.309 205.777 73.0903C204.84 71.8403 203.949 70.559 203.105 69.2465L201.793 77.309C201.262 80.5278 200.84 83.3246 200.527 85.6996C200.215 88.1059 199.98 90.1371 199.824 91.7934C199.699 93.4809 199.652 94.8246 199.684 95.8246C199.715 96.8246 199.809 97.5434 199.965 97.9809C199.496 98.1059 198.871 98.2934 198.09 98.5434C197.34 98.8246 196.559 99.1059 195.746 99.3871C194.934 99.6996 194.152 99.9965 193.402 100.278C192.652 100.59 192.074 100.84 191.668 101.028L190.027 99.5746C190.152 98.6684 190.371 97.2778 190.684 95.4028C190.996 93.5278 191.371 91.3246 191.809 88.7934C192.277 86.2934 192.777 83.559 193.309 80.5903C193.84 77.6215 194.371 74.6059 194.902 71.5434C195.465 68.4809 195.996 65.4496 196.496 62.4496C196.996 59.4496 197.434 56.6684 197.809 54.1059C198.215 51.5434 198.527 49.2934 198.746 47.3559C198.996 45.3871 199.121 43.9028 199.121 42.9028C199.121 42.184 199.059 41.6215 198.934 41.2153C198.809 40.7778 198.637 40.4653 198.418 40.2778C198.199 40.059 197.965 39.9184 197.715 39.8559C197.465 39.7934 197.199 39.7621 196.918 39.7621C196.637 39.7621 196.23 39.8246 195.699 39.9496C195.199 40.0434 194.699 40.1684 194.199 40.3246C193.605 40.4809 192.98 40.6684 192.324 40.8871L191.621 38.684C192.965 38.059 194.371 37.4496 195.84 36.8559C197.309 36.2621 198.699 35.7309 200.012 35.2621C201.324 34.7934 202.496 34.4184 203.527 34.1371C204.559 33.8559 205.293 33.7153 205.73 33.7153C206.418 33.7153 206.965 33.934 207.371 34.3715C207.809 34.7778 208.027 35.5903 208.027 36.809ZM259.402 73.6059C256.465 75.3559 253.871 76.7778 251.621 77.8715C249.402 78.9653 247.543 79.5121 246.043 79.5121C244.98 79.5121 244.105 79.0121 243.418 78.0121C242.762 77.0434 242.434 75.7153 242.434 74.0278C242.434 73.0903 242.543 71.7778 242.762 70.0903C243.012 68.4028 243.293 66.5434 243.605 64.5121C243.949 62.4496 244.324 60.309 244.73 58.0903C245.137 55.8715 245.496 53.7621 245.809 51.7621C246.152 49.7621 246.434 47.9809 246.652 46.4184C246.902 44.8559 247.027 43.684 247.027 42.9028C247.027 42.184 246.98 41.6215 246.887 41.2153C246.793 40.7778 246.668 40.4653 246.512 40.2778C246.355 40.059 246.152 39.9184 245.902 39.8559C245.652 39.7934 245.387 39.7621 245.105 39.7621C244.855 39.7621 244.48 39.8246 243.98 39.9496C243.48 40.0434 242.965 40.1684 242.434 40.3246C241.84 40.4809 241.199 40.6684 240.512 40.8871L239.809 38.684C241.121 38.0903 242.48 37.4965 243.887 36.9028C245.324 36.309 246.668 35.7778 247.918 35.309C249.199 34.8403 250.34 34.4653 251.34 34.184C252.34 33.8715 253.074 33.7153 253.543 33.7153C254.418 33.7153 255.043 34.0121 255.418 34.6059C255.824 35.1996 256.027 36.2153 256.027 37.6528C256.027 38.559 255.902 39.8715 255.652 41.5903C255.434 43.309 255.152 45.2153 254.809 47.309C254.465 49.4028 254.074 51.6059 253.637 53.9184C253.23 56.2309 252.855 58.434 252.512 60.5278C252.168 62.6215 251.871 64.5278 251.621 66.2465C251.402 67.9653 251.293 69.2778 251.293 70.184C251.293 71.1528 251.387 71.8559 251.574 72.2934C251.793 72.7309 252.168 72.9496 252.699 72.9496C253.668 72.9496 254.574 72.8246 255.418 72.5746C256.262 72.3246 257.324 71.934 258.605 71.4028L259.402 73.6059ZM260.574 18.434C260.574 19.309 260.418 20.1996 260.105 21.1059C259.824 21.9809 259.402 22.7934 258.84 23.5434C258.277 24.2621 257.59 24.8559 256.777 25.3246C255.965 25.7621 255.043 25.9809 254.012 25.9809C252.824 25.9809 251.918 25.6684 251.293 25.0434C250.668 24.3871 250.355 23.5278 250.355 22.4653C250.355 21.6215 250.512 20.7621 250.824 19.8871C251.137 18.9809 251.574 18.1684 252.137 17.4496C252.699 16.6996 253.387 16.0903 254.199 15.6215C255.012 15.1215 255.934 14.8715 256.965 14.8715C258.152 14.8715 259.043 15.1996 259.637 15.8559C260.262 16.5121 260.574 17.3715 260.574 18.434ZM299.34 37.7465C298.965 38.2465 298.512 38.9184 297.98 39.7621C297.48 40.6059 296.965 41.434 296.434 42.2465C295.934 43.059 295.449 43.7621 294.98 44.3559C294.512 44.9496 294.121 45.2465 293.809 45.2465C293.215 45.2465 292.684 45.0746 292.215 44.7309C291.777 44.3871 291.34 44.0121 290.902 43.6059C290.496 43.1684 290.09 42.7778 289.684 42.434C289.309 42.059 288.887 41.8715 288.418 41.8715C287.605 41.8715 286.668 42.3715 285.605 43.3715C284.574 44.3715 283.527 45.7153 282.465 47.4028C281.402 49.059 280.387 50.9496 279.418 53.0746C278.48 55.1996 277.684 57.3871 277.027 59.6371C276.684 60.8246 276.371 62.1059 276.09 63.4809C275.84 64.8246 275.605 66.2153 275.387 67.6528C275.199 69.059 275.059 70.4653 274.965 71.8715C274.871 73.2465 274.855 74.559 274.918 75.809C274.48 76.0278 273.887 76.309 273.137 76.6528C272.418 76.9965 271.652 77.3403 270.84 77.684C270.059 78.0278 269.309 78.3559 268.59 78.6684C267.871 79.0121 267.324 79.2934 266.949 79.5121L265.262 77.9653C265.73 75.7465 266.184 73.4653 266.621 71.1215C267.059 68.7778 267.465 66.4653 267.84 64.184C268.215 61.9028 268.559 59.6996 268.871 57.5746C269.215 55.4184 269.496 53.4184 269.715 51.5746C269.965 49.6996 270.152 48.0278 270.277 46.559C270.402 45.059 270.465 43.8403 270.465 42.9028C270.465 42.184 270.402 41.6215 270.277 41.2153C270.184 40.7778 270.043 40.4653 269.855 40.2778C269.699 40.059 269.496 39.9184 269.246 39.8559C269.027 39.7934 268.793 39.7621 268.543 39.7621C268.23 39.7621 267.809 39.8246 267.277 39.9496C266.777 40.0434 266.262 40.1684 265.73 40.3246C265.137 40.4809 264.496 40.6684 263.809 40.8871L263.105 38.684C264.418 38.0903 265.793 37.4965 267.23 36.9028C268.699 36.309 270.074 35.7778 271.355 35.309C272.668 34.8403 273.824 34.4653 274.824 34.184C275.855 33.8715 276.59 33.7153 277.027 33.7153C277.465 33.7153 277.809 33.7934 278.059 33.9496C278.309 34.0746 278.496 34.3403 278.621 34.7465C278.777 35.1215 278.871 35.6528 278.902 36.3403C278.934 36.9965 278.949 37.8403 278.949 38.8715C278.949 39.2153 278.902 39.7621 278.809 40.5121C278.746 41.2309 278.652 42.0278 278.527 42.9028C278.434 43.7778 278.324 44.6528 278.199 45.5278C278.074 46.3715 277.965 47.0903 277.871 47.684C279.371 44.809 280.777 42.4653 282.09 40.6528C283.434 38.8403 284.699 37.4184 285.887 36.3871C287.074 35.3559 288.199 34.6528 289.262 34.2778C290.355 33.9028 291.402 33.7153 292.402 33.7153C292.965 33.7153 293.512 33.8715 294.043 34.184C294.574 34.4965 295.105 34.8715 295.637 35.309C296.199 35.7465 296.777 36.1996 297.371 36.6684C297.996 37.1059 298.652 37.4653 299.34 37.7465ZM328.074 54.3403C328.074 49.559 327.246 45.9028 325.59 43.3715C323.934 40.809 321.699 39.5278 318.887 39.5278C317.48 39.5278 316.215 39.8246 315.09 40.4184C313.996 40.9809 313.027 41.7465 312.184 42.7153C311.371 43.6528 310.668 44.7621 310.074 46.0434C309.512 47.3246 309.043 48.6684 308.668 50.0746C308.293 51.4809 308.027 52.9184 307.871 54.3871C307.715 55.8559 307.637 57.2465 307.637 58.559C307.637 60.6528 307.887 62.6215 308.387 64.4653C308.887 66.309 309.559 67.934 310.402 69.3403C311.246 70.7153 312.23 71.809 313.355 72.6215C314.512 73.434 315.746 73.8403 317.059 73.8403C318.402 73.8403 319.605 73.5434 320.668 72.9496C321.73 72.3246 322.668 71.5121 323.48 70.5121C324.293 69.4809 324.98 68.309 325.543 66.9965C326.137 65.6528 326.621 64.2621 326.996 62.8246C327.371 61.3871 327.637 59.934 327.793 58.4653C327.98 56.9965 328.074 55.6215 328.074 54.3403ZM336.184 51.3871C336.184 53.4809 335.934 55.6059 335.434 57.7621C334.965 59.8871 334.262 61.9653 333.324 63.9965C332.387 65.9965 331.23 67.9184 329.855 69.7621C328.512 71.5746 326.965 73.1996 325.215 74.6371C324.402 75.2934 323.527 75.9184 322.59 76.5121C321.652 77.1059 320.684 77.6215 319.684 78.059C318.715 78.5278 317.73 78.8871 316.73 79.1371C315.762 79.3871 314.809 79.5121 313.871 79.5121C311.59 79.5121 309.559 79.0434 307.777 78.1059C305.996 77.1996 304.48 75.9496 303.23 74.3559C302.012 72.7309 301.074 70.8246 300.418 68.6371C299.793 66.4184 299.48 64.0278 299.48 61.4653C299.48 59.2153 299.668 57.059 300.043 54.9965C300.449 52.9028 301.09 50.8871 301.965 48.9496C302.84 46.9809 303.996 45.1059 305.434 43.3246C306.871 41.5434 308.621 39.8403 310.684 38.2153C312.277 36.9653 314.074 35.9028 316.074 35.0278C318.105 34.1528 320.121 33.7153 322.121 33.7153C324.559 33.7153 326.668 34.1528 328.449 35.0278C330.23 35.9028 331.684 37.1215 332.809 38.684C333.965 40.2465 334.809 42.1059 335.34 44.2621C335.902 46.4184 336.184 48.7934 336.184 51.3871Z"
    fill="#1D1E25" />
</svg>
